nColumns=28
nRows=33
DataType=double
version=3
OpenSimVersion=4.1
endheader
time	ground_force_1_vx	ground_force_1_vy	ground_force_1_vz	ground_force_1_px	ground_force_1_py	ground_force_1_pz	ground_force_1_mx	ground_force_1_my	ground_force_1_mz	ground_force_2_vx	ground_force_2_vy	ground_force_2_vz	ground_force_2_px	ground_force_2_py	ground_force_2_pz	ground_force_2_mx	ground_force_2_my	ground_force_2_mz	ground_force_3_vx	ground_force_3_vy	ground_force_3_vz	ground_force_3_px	ground_force_3_py	ground_force_3_pz	ground_force_3_mx	ground_force_3_my	ground_force_3_mz
3.22	3.38567	242.042	-18.0384	-0.265993	0.006	-0.418337	0	-2.52526	0	6.29631	242.463	16.346	-0.244739	0.006	-0.756725	0	2.37068	0	0	0	0	0	0	0	0	0	0
3.23	4.19182	242.143	-17.4054	-0.267168	0.006	-0.418222	0	-2.59898	0	6.76602	243.557	15.8715	-0.246319	0.006	-0.756736	0	2.55523	0	0	0	0	0	0	0	0	0	0
3.24	5.04401	242.188	-16.7309	-0.268388	0.006	-0.418113	0	-2.67619	0	7.16666	244.909	15.389	-0.247931	0.006	-0.756739	0	2.7478	0	0	0	0	0	0	0	0	0	0
3.25	5.9218	242.207	-16.0028	-0.269654	0.006	-0.418017	0	-2.757	0	7.5033	246.485	14.896	-0.249593	0.006	-0.75673	0	2.94639	0	0	0	0	0	0	0	0	0	0
3.26	6.80904	242.227	-15.2118	-0.270968	0.006	-0.417944	0	-2.84093	0	7.7832	248.25	14.3862	-0.251317	0.006	-0.756706	0	3.14857	0	0	0	0	0	0	0	0	0	0
3.27	7.69163	242.269	-14.3562	-0.272324	0.006	-0.417898	0	-2.92699	0	8.0162	250.17	13.849	-0.253108	0.006	-0.756662	0	3.35181	0	0	0	0	0	0	0	0	0	0
3.28	8.55539	242.34	-13.4424	-0.273715	0.006	-0.417886	0	-3.01385	0	8.21345	252.215	13.2707	-0.254964	0.006	-0.75659	0	3.55351	0	0	0	0	0	0	0	0	0	0
3.29	9.38496	242.448	-12.4826	-0.275124	0.006	-0.417909	0	-3.10008	0	8.3853	254.353	12.637	-0.256871	0.006	-0.756487	0	3.75093	0	0	0	0	0	0	0	0	0	0
3.3	10.163	242.605	-11.4926	-0.276526	0.006	-0.417969	0	-3.18442	0	8.54033	256.555	11.9357	-0.258807	0.006	-0.75635	0	3.94127	0	0	0	0	0	0	0	0	0	0
3.31	10.8693	242.836	-10.4881	-0.277887	0.006	-0.418069	0	-3.26607	0	8.6828	258.799	11.1607	-0.26074	0.006	-0.756177	0	4.12161	0	0	0	0	0	0	0	0	0	0
3.32	11.4809	243.171	-9.47957	-0.27917	0.006	-0.41821	0	-3.34459	0	8.81041	261.073	10.3152	-0.26263	0.006	-0.755971	0	4.28919	0	0	0	0	0	0	0	0	0	0
3.33	11.9747	243.645	-8.47079	-0.280332	0.006	-0.418396	0	-3.41988	0	8.91402	263.378	9.41212	-0.264435	0.006	-0.755739	0	4.44178	0	0	0	0	0	0	0	0	0	0
3.34	12.3318	244.297	-7.46152	-0.281337	0.006	-0.418632	0	-3.49206	0	8.98022	265.727	8.47022	-0.266111	0.006	-0.755487	0	4.57782	0	0	0	0	0	0	0	0	0	0
3.35	12.54	245.162	-6.45383	-0.282156	0.006	-0.418919	0	-3.5612	0	8.9966	268.138	7.5084	-0.26762	0.006	-0.75522	0	4.69635	0	0	0	0	0	0	0	0	0	0
3.36	12.5946	246.248	-5.45693	-0.282768	0.006	-0.419255	0	-3.6271	0	8.95568	270.629	6.54402	-0.268933	0.006	-0.754947	0	4.79694	0	0	0	0	0	0	0	0	0	0
3.37	12.4985	247.538	-4.48839	-0.283167	0.006	-0.419634	0	-3.68892	0	8.85571	273.212	5.59262	-0.270028	0.006	-0.754673	0	4.87974	0	0	0	0	0	0	0	0	0	0
3.38	12.2613	248.994	-3.5699	-0.283357	0.006	-0.42005	0	-3.74517	0	8.6982	275.889	4.66848	-0.270894	0.006	-0.754403	0	4.94533	0	0	0	0	0	0	0	0	0	0
3.39	11.8955	250.579	-2.7183	-0.283348	0.006	-0.420496	0	-3.79368	0	8.48509	278.652	3.78612	-0.271527	0.006	-0.75414	0	4.99466	0	0	0	0	0	0	0	0	0	0
3.4	11.4138	252.273	-1.93729	-0.28316	0.006	-0.420971	0	-3.83173	0	8.21752	281.491	2.96073	-0.271932	0.006	-0.75389	0	5.0291	0	0	0	0	0	0	0	0	0	0
3.41	10.8269	254.081	-1.21631	-0.28281	0.006	-0.421476	0	-3.85648	0	7.89407	284.399	2.20694	-0.272119	0.006	-0.753656	0	5.05029	0	0	0	0	0	0	0	0	0	0
3.42	10.1422	256.03	-0.535821	-0.282319	0.006	-0.422012	0	-3.86559	0	7.50967	287.375	1.53574	-0.272101	0.006	-0.75344	0	5.06009	0	0	0	0	0	0	0	0	0	0
3.43	9.36359	258.156	0.126696	-0.281705	0.006	-0.422582	0	-3.85761	0	7.05617	290.417	0.951845	-0.271896	0.006	-0.753242	0	5.06041	0	0	0	0	0	0	0	0	0	0
3.44	8.49469	260.492	0.793082	-0.28099	0.006	-0.423187	0	-3.83224	0	6.52513	293.519	0.453332	-0.271528	0.006	-0.753061	0	5.05286	0	0	0	0	0	0	0	0	0	0
3.45	7.54356	263.065	1.48184	-0.280195	0.006	-0.423827	0	-3.79082	0	5.91265	296.661	0.0325291	-0.271019	0.006	-0.752893	0	5.03855	0	0	0	0	0	0	0	0	0	0
3.46	6.52518	265.892	2.20647	-0.279342	0.006	-0.424498	0	-3.7363	0	5.22111	299.817	-0.321145	-0.270396	0.006	-0.752734	0	5.0183	0	0	0	0	0	0	0	0	0	0
3.47	5.46117	268.985	2.97309	-0.278454	0.006	-0.425198	0	-3.67288	0	4.4574	302.964	-0.617176	-0.269685	0.006	-0.752582	0	4.99302	0	0	0	0	0	0	0	0	0	0
3.48	4.37798	272.351	3.77847	-0.277553	0.006	-0.425922	0	-3.60564	0	3.63264	306.084	-0.862448	-0.268908	0.006	-0.752432	0	4.96389	0	0	0	0	0	0	0	0	0	0
3.49	3.30552	275.99	4.61058	-0.276663	0.006	-0.426661	0	-3.54023	0	2.76374	309.179	-1.06378	-0.268091	0.006	-0.752285	0	4.93238	0	0	0	0	0	0	0	0	0	0
3.5	2.27569	279.893	5.45043	-0.275803	0.006	-0.427408	0	-3.48241	0	1.8737	312.278	-1.23052	-0.267253	0.006	-0.752138	0	4.90009	0	0	0	0	0	0	0	0	0	0
3.51	1.3194	284.045	6.27533	-0.274991	0.006	-0.428155	0	-3.43756	0	0.990994	315.429	-1.37404	-0.266419	0.006	-0.751993	0	4.86884	0	0	0	0	0	0	0	0	0	0
3.52	0.463544	288.427	7.06483	-0.274242	0.006	-0.428892	0	-3.41022	0	0.147126	318.691	-1.5062	-0.265606	0.006	-0.751849	0	4.84053	0	0	0	0	0	0	0	0	0	0
3.53	-0.271876	293.02	7.80463	-0.273567	0.006	-0.429613	0	-3.40376	0	-0.627441	322.116	-1.63841	-0.264835	0.006	-0.751708	0	4.81677	0	0	0	0	0	0	0	0	0	0
3.54	-0.873909	297.806	8.4856	-0.272973	0.006	-0.430313	0	-3.42043	0	-1.30682	325.745	-1.78115	-0.26412	0.006	-0.751569	0	4.79878	0	0	0	0	0	0	0	0	0	0
